<mxfile host="app.diagrams.net" modified="2024-05-27T16:39:55.020Z" agent="Mozilla/5.0 (Windows NT 10.0; Win64; x64) AppleWebKit/537.36 (KHTML, like Gecko) Chrome/125.0.0.0 Safari/537.36" version="23.1.6" etag="QZ5Vqp_U3RQCMBOQ4RPB" type="github">
  <diagram name="Page-1" id="H6W74WY9scQJv6wqV4sv">
    <mxGraphModel>
      <root>
        <mxCell id="0" />
        <mxCell id="1" parent="0" />
      </root>
    </mxGraphModel>
  </diagram>
</mxfile>
